<svg viewBox="0 0 320 132" xmlns="http://www.w3.org/2000/svg" preserveAspectRatio="xMidYMid slice"><rect width="320" height="132" fill="#160023"/><g stroke="#c084fc" stroke-width="2.4" stroke-linecap="round" fill="none"><line x1="64" y1="32" x2="64" y2="44"/><line x1="64" y1="44" x2="48" y2="46"/><line x1="64" y1="44" x2="80" y2="46"/><line x1="48" y1="46" x2="40" y2="64"/><line x1="40" y1="64" x2="44" y2="82"/><line x1="80" y1="46" x2="88" y2="62"/><line x1="88" y1="62" x2="86" y2="80"/><line x1="64" y1="44" x2="64" y2="72"/><line x1="64" y1="72" x2="53" y2="74"/><line x1="64" y1="72" x2="75" y2="74"/><line x1="53" y1="74" x2="49" y2="96"/><line x1="49" y1="96" x2="46" y2="116"/><line x1="75" y1="74" x2="77" y2="96"/><line x1="77" y1="96" x2="80" y2="116"/></g><circle cx="64" cy="32" r="4" fill="#ffeed6"/><circle cx="64" cy="44" r="2.3" fill="#ffeed6"/><circle cx="48" cy="46" r="2.3" fill="#ffeed6"/><circle cx="80" cy="46" r="2.3" fill="#ffeed6"/><circle cx="40" cy="64" r="2.3" fill="#ffeed6"/><circle cx="88" cy="62" r="2.3" fill="#ffeed6"/><circle cx="44" cy="82" r="2.3" fill="#ffeed6"/><circle cx="86" cy="80" r="2.3" fill="#ffeed6"/><circle cx="64" cy="72" r="2.3" fill="#ffeed6"/><circle cx="53" cy="74" r="2.3" fill="#ffeed6"/><circle cx="75" cy="74" r="2.3" fill="#ffeed6"/><circle cx="49" cy="96" r="2.3" fill="#ffeed6"/><circle cx="77" cy="96" r="2.3" fill="#ffeed6"/><circle cx="46" cy="116" r="2.3" fill="#ffeed6"/><circle cx="80" cy="116" r="2.3" fill="#ffeed6"/><g stroke="#523472" stroke-width="2" fill="none"><line x1="120" y1="66" x2="150" y2="66"/><path d="M144 61 L151 66 L144 71" stroke="#ff6d1f"/></g><rect x="168" y="16" width="140" height="100" rx="10" fill="#1c0a2b" opacity="0.5" stroke="#3d2554" stroke-width="1"/><circle cx="205.5" cy="56.2" r="2.6" fill="#c084fc" opacity="0.85"/><circle cx="204.9" cy="46.0" r="2.6" fill="#c084fc" opacity="0.85"/><circle cx="216.4" cy="51.5" r="2.6" fill="#c084fc" opacity="0.85"/><circle cx="193.4" cy="52.3" r="2.6" fill="#c084fc" opacity="0.85"/><circle cx="213.5" cy="38.5" r="2.6" fill="#c084fc" opacity="0.85"/><circle cx="188.9" cy="50.6" r="2.6" fill="#c084fc" opacity="0.85"/><circle cx="203.9" cy="40.4" r="2.6" fill="#c084fc" opacity="0.85"/><circle cx="203.7" cy="41.1" r="2.6" fill="#c084fc" opacity="0.85"/><circle cx="217.3" cy="45.9" r="2.6" fill="#c084fc" opacity="0.85"/><circle cx="205.9" cy="32.1" r="2.6" fill="#c084fc" opacity="0.85"/><circle cx="199.9" cy="36.7" r="2.6" fill="#c084fc" opacity="0.85"/><circle cx="219.7" cy="52.1" r="2.6" fill="#c084fc" opacity="0.85"/><circle cx="222.1" cy="55.8" r="2.6" fill="#c084fc" opacity="0.85"/><circle cx="199.1" cy="57.7" r="2.6" fill="#c084fc" opacity="0.85"/><circle cx="241.4" cy="56.2" r="2.6" fill="#c084fc" opacity="0.85"/><circle cx="253.0" cy="76.6" r="2.6" fill="#c084fc" opacity="0.85"/><circle cx="261.7" cy="68.3" r="2.6" fill="#c084fc" opacity="0.85"/><circle cx="257.8" cy="55.0" r="2.6" fill="#c084fc" opacity="0.85"/><circle cx="232.2" cy="57.4" r="2.6" fill="#c084fc" opacity="0.85"/><circle cx="228.5" cy="50.6" r="2.6" fill="#c084fc" opacity="0.85"/><circle cx="250.0" cy="64.3" r="2.6" fill="#c084fc" opacity="0.85"/><circle cx="258.4" cy="47.2" r="2.6" fill="#c084fc" opacity="0.85"/><circle cx="245.8" cy="57.0" r="2.6" fill="#c084fc" opacity="0.85"/><circle cx="255.5" cy="66.7" r="2.6" fill="#c084fc" opacity="0.85"/><circle cx="248.4" cy="65.0" r="2.6" fill="#c084fc" opacity="0.85"/><circle cx="248.2" cy="65.2" r="2.6" fill="#c084fc" opacity="0.85"/><circle cx="249.0" cy="49.4" r="2.6" fill="#c084fc" opacity="0.85"/><circle cx="248.2" cy="66.9" r="2.6" fill="#c084fc" opacity="0.85"/><circle cx="222.7" cy="85.7" r="2.6" fill="#ff6d1f" opacity="0.85"/><circle cx="237.2" cy="90.6" r="2.6" fill="#ff6d1f" opacity="0.85"/><circle cx="221.2" cy="75.4" r="2.6" fill="#ff6d1f" opacity="0.85"/><circle cx="240.8" cy="74.4" r="2.6" fill="#ff6d1f" opacity="0.85"/><circle cx="228.2" cy="91.9" r="2.6" fill="#ff6d1f" opacity="0.85"/><circle cx="231.5" cy="108.0" r="2.6" fill="#ff6d1f" opacity="0.85"/><circle cx="220.1" cy="106.1" r="2.6" fill="#ff6d1f" opacity="0.85"/><circle cx="219.9" cy="108.0" r="2.6" fill="#ff6d1f" opacity="0.85"/><circle cx="220.1" cy="93.1" r="2.6" fill="#ff6d1f" opacity="0.85"/><circle cx="234.0" cy="83.3" r="2.6" fill="#ff6d1f" opacity="0.85"/><circle cx="219.5" cy="97.6" r="2.6" fill="#ff6d1f" opacity="0.85"/><circle cx="222.8" cy="77.2" r="2.6" fill="#ff6d1f" opacity="0.85"/><circle cx="235.7" cy="62.3" r="2.6" fill="#ff6d1f" opacity="0.85"/><circle cx="229.2" cy="91.8" r="2.6" fill="#ff6d1f" opacity="0.85"/><circle cx="224" cy="88" r="5.5" fill="none" stroke="#ff6d1f" stroke-width="1.6"/><circle cx="224" cy="88" r="3.2" fill="#ff6d1f"/></svg>