<svg viewBox="0 0 320 132" xmlns="http://www.w3.org/2000/svg" preserveAspectRatio="xMidYMid slice"><defs><radialGradient id="g" cx="50%" cy="120%" r="90%"><stop offset="0%" stop-color="#35104f"/><stop offset="60%" stop-color="#160023"/></radialGradient></defs><rect width="320" height="132" fill="url(#g)"/><circle cx="160.0" cy="68.64" r="54" fill="#1c0a2b" stroke="#523472" stroke-width="1.5"/><g stroke="#523472" stroke-width="1" fill="none" opacity="0.7"><ellipse cx="160.0" cy="36.2" rx="43.2" ry="8.6"/><ellipse cx="160.0" cy="52.4" rx="51.5" ry="8.6"/><ellipse cx="160.0" cy="68.6" rx="54.0" ry="8.6"/><ellipse cx="160.0" cy="84.8" rx="51.5" ry="8.6"/><ellipse cx="160.0" cy="101.0" rx="43.2" ry="8.6"/><ellipse cx="122.2" cy="68.64" rx="38.6" ry="54.0"/><ellipse cx="141.1" cy="68.64" rx="50.6" ry="54.0"/><ellipse cx="160.0" cy="68.64" rx="54.0" ry="54.0"/><ellipse cx="178.9" cy="68.64" rx="50.6" ry="54.0"/><ellipse cx="197.8" cy="68.64" rx="38.6" ry="54.0"/></g><circle cx="160.0" cy="68.64" r="54" fill="none" stroke="#c084fc" stroke-width="1.5" opacity="0.5"/><path d="M144.0 62.6 C137.4 52.7 139.6 45.0 144.0 43.9 C148.4 45.0 150.6 52.7 144.0 62.6 Z" fill="#ff6d1f"/><circle cx="144.0" cy="50.5" r="2.6" fill="#160023"/><path d="M180.0 72.6 C174.6 64.5 176.4 58.2 180.0 57.3 C183.6 58.2 185.4 64.5 180.0 72.6 Z" fill="#c084fc"/><circle cx="180.0" cy="62.7" r="2.2" fill="#160023"/><path d="M162.0 90.6 C157.2 83.4 158.8 77.8 162.0 77.0 C165.2 77.8 166.8 83.4 162.0 90.6 Z" fill="#ff6d1f"/><circle cx="162.0" cy="81.8" r="1.9" fill="#160023"/></svg>