<svg viewBox="0 0 320 132" xmlns="http://www.w3.org/2000/svg" preserveAspectRatio="xMidYMid slice"><defs><radialGradient id="g" cx="50%" cy="120%" r="90%"><stop offset="0%" stop-color="#35104f"/><stop offset="60%" stop-color="#160023"/></radialGradient></defs><rect width="320" height="132" fill="url(#g)"/><g><rect x="10.0" y="63.2" width="8" height="10.7" rx="4" fill="#c084fc" opacity="0.70"/><rect x="10.0" y="73.9" width="8" height="5.4" rx="4" fill="#c084fc" opacity="0.28"/><rect x="21.7" y="55.6" width="8" height="18.4" rx="4" fill="#c084fc" opacity="0.70"/><rect x="21.7" y="73.9" width="8" height="9.2" rx="4" fill="#c084fc" opacity="0.28"/><rect x="33.4" y="55.9" width="8" height="18.1" rx="4" fill="#c084fc" opacity="0.70"/><rect x="33.4" y="73.9" width="8" height="9.0" rx="4" fill="#c084fc" opacity="0.28"/><rect x="45.0" y="56.1" width="8" height="17.9" rx="4" fill="#c084fc" opacity="0.70"/><rect x="45.0" y="73.9" width="8" height="8.9" rx="4" fill="#c084fc" opacity="0.28"/><rect x="56.7" y="44.1" width="8" height="29.8" rx="4" fill="#c084fc" opacity="0.70"/><rect x="56.7" y="73.9" width="8" height="14.9" rx="4" fill="#c084fc" opacity="0.28"/><rect x="68.4" y="48.0" width="8" height="25.9" rx="4" fill="#c084fc" opacity="0.70"/><rect x="68.4" y="73.9" width="8" height="12.9" rx="4" fill="#c084fc" opacity="0.28"/><rect x="80.1" y="36.1" width="8" height="37.9" rx="4" fill="#c084fc" opacity="0.70"/><rect x="80.1" y="73.9" width="8" height="18.9" rx="4" fill="#c084fc" opacity="0.28"/><rect x="91.8" y="43.9" width="8" height="30.0" rx="4" fill="#c084fc" opacity="0.70"/><rect x="91.8" y="73.9" width="8" height="15.0" rx="4" fill="#c084fc" opacity="0.28"/><rect x="103.4" y="44.5" width="8" height="29.4" rx="4" fill="#c084fc" opacity="0.70"/><rect x="103.4" y="73.9" width="8" height="14.7" rx="4" fill="#c084fc" opacity="0.28"/><rect x="115.1" y="25.8" width="8" height="48.2" rx="4" fill="#c084fc" opacity="0.70"/><rect x="115.1" y="73.9" width="8" height="24.1" rx="4" fill="#c084fc" opacity="0.28"/><rect x="126.8" y="37.4" width="8" height="36.5" rx="4" fill="#c084fc" opacity="0.70"/><rect x="126.8" y="73.9" width="8" height="18.2" rx="4" fill="#c084fc" opacity="0.28"/><rect x="138.5" y="23.0" width="8" height="50.9" rx="4" fill="#c084fc" opacity="0.70"/><rect x="138.5" y="73.9" width="8" height="25.4" rx="4" fill="#c084fc" opacity="0.28"/><rect x="150.2" y="28.8" width="8" height="45.1" rx="4" fill="#ff6d1f" opacity="0.85"/><rect x="150.2" y="73.9" width="8" height="22.6" rx="4" fill="#ff6d1f" opacity="0.34"/><rect x="161.8" y="21.7" width="8" height="52.2" rx="4" fill="#ff6d1f" opacity="0.85"/><rect x="161.8" y="73.9" width="8" height="26.1" rx="4" fill="#ff6d1f" opacity="0.34"/><rect x="173.5" y="14.7" width="8" height="59.2" rx="4" fill="#c084fc" opacity="0.70"/><rect x="173.5" y="73.9" width="8" height="29.6" rx="4" fill="#c084fc" opacity="0.28"/><rect x="185.2" y="33.6" width="8" height="40.3" rx="4" fill="#c084fc" opacity="0.70"/><rect x="185.2" y="73.9" width="8" height="20.2" rx="4" fill="#c084fc" opacity="0.28"/><rect x="196.9" y="39.3" width="8" height="34.6" rx="4" fill="#c084fc" opacity="0.70"/><rect x="196.9" y="73.9" width="8" height="17.3" rx="4" fill="#c084fc" opacity="0.28"/><rect x="208.6" y="45.5" width="8" height="28.4" rx="4" fill="#ff6d1f" opacity="0.85"/><rect x="208.6" y="73.9" width="8" height="14.2" rx="4" fill="#ff6d1f" opacity="0.34"/><rect x="220.2" y="31.8" width="8" height="42.1" rx="4" fill="#ff6d1f" opacity="0.85"/><rect x="220.2" y="73.9" width="8" height="21.0" rx="4" fill="#ff6d1f" opacity="0.34"/><rect x="231.9" y="43.4" width="8" height="30.5" rx="4" fill="#c084fc" opacity="0.70"/><rect x="231.9" y="73.9" width="8" height="15.3" rx="4" fill="#c084fc" opacity="0.28"/><rect x="243.6" y="50.9" width="8" height="23.0" rx="4" fill="#c084fc" opacity="0.70"/><rect x="243.6" y="73.9" width="8" height="11.5" rx="4" fill="#c084fc" opacity="0.28"/><rect x="255.3" y="52.0" width="8" height="21.9" rx="4" fill="#c084fc" opacity="0.70"/><rect x="255.3" y="73.9" width="8" height="10.9" rx="4" fill="#c084fc" opacity="0.28"/><rect x="267.0" y="53.8" width="8" height="20.2" rx="4" fill="#c084fc" opacity="0.70"/><rect x="267.0" y="73.9" width="8" height="10.1" rx="4" fill="#c084fc" opacity="0.28"/><rect x="278.6" y="54.7" width="8" height="19.3" rx="4" fill="#c084fc" opacity="0.70"/><rect x="278.6" y="73.9" width="8" height="9.6" rx="4" fill="#c084fc" opacity="0.28"/><rect x="290.3" y="53.1" width="8" height="20.9" rx="4" fill="#c084fc" opacity="0.70"/><rect x="290.3" y="73.9" width="8" height="10.4" rx="4" fill="#c084fc" opacity="0.28"/><rect x="302.0" y="60.0" width="8" height="13.9" rx="4" fill="#c084fc" opacity="0.70"/><rect x="302.0" y="73.9" width="8" height="7.0" rx="4" fill="#c084fc" opacity="0.28"/></g><line x1="10" y1="73.9" x2="310" y2="73.9" stroke="#c084fc" stroke-width="1" opacity="0.35"/></svg>