<svg viewBox="0 0 320 132" xmlns="http://www.w3.org/2000/svg" preserveAspectRatio="xMidYMid slice"><rect width="320" height="132" fill="#160023"/><g><rect x="8.0" y="8.0" width="12.2" height="13.6" rx="2.5" fill="#c084fc" opacity="0.46"/><rect x="23.2" y="8.0" width="12.2" height="13.6" rx="2.5" fill="#3d2554" opacity="0.50"/><rect x="38.4" y="8.0" width="12.2" height="13.6" rx="2.5" fill="#3d2554" opacity="0.50"/><rect x="53.6" y="8.0" width="12.2" height="13.6" rx="2.5" fill="#c084fc" opacity="0.45"/><rect x="68.8" y="8.0" width="12.2" height="13.6" rx="2.5" fill="#c084fc" opacity="0.78"/><rect x="84.0" y="8.0" width="12.2" height="13.6" rx="2.5" fill="#c084fc" opacity="0.48"/><rect x="99.2" y="8.0" width="12.2" height="13.6" rx="2.5" fill="#c084fc" opacity="0.42"/><rect x="114.4" y="8.0" width="12.2" height="13.6" rx="2.5" fill="#c084fc" opacity="0.61"/><rect x="129.6" y="8.0" width="12.2" height="13.6" rx="2.5" fill="#c084fc" opacity="0.78"/><rect x="144.8" y="8.0" width="12.2" height="13.6" rx="2.5" fill="#3d2554" opacity="0.50"/><rect x="160.0" y="8.0" width="12.2" height="13.6" rx="2.5" fill="#c084fc" opacity="0.74"/><rect x="175.2" y="8.0" width="12.2" height="13.6" rx="2.5" fill="#3d2554" opacity="0.50"/><rect x="190.4" y="8.0" width="12.2" height="13.6" rx="2.5" fill="#ff6d1f" opacity="0.95"/><rect x="205.6" y="8.0" width="12.2" height="13.6" rx="2.5" fill="#c084fc" opacity="0.90"/><rect x="220.8" y="8.0" width="12.2" height="13.6" rx="2.5" fill="#c084fc" opacity="0.48"/><rect x="236.0" y="8.0" width="12.2" height="13.6" rx="2.5" fill="#c084fc" opacity="0.64"/><rect x="251.2" y="8.0" width="12.2" height="13.6" rx="2.5" fill="#c084fc" opacity="0.74"/><rect x="266.4" y="8.0" width="12.2" height="13.6" rx="2.5" fill="#c084fc" opacity="0.90"/><rect x="281.6" y="8.0" width="12.2" height="13.6" rx="2.5" fill="#c084fc" opacity="0.55"/><rect x="296.8" y="8.0" width="12.2" height="13.6" rx="2.5" fill="#c084fc" opacity="0.51"/><rect x="8.0" y="24.6" width="12.2" height="13.6" rx="2.5" fill="#c084fc" opacity="0.64"/><rect x="23.2" y="24.6" width="12.2" height="13.6" rx="2.5" fill="#3d2554" opacity="0.50"/><rect x="38.4" y="24.6" width="12.2" height="13.6" rx="2.5" fill="#c084fc" opacity="0.90"/><rect x="53.6" y="24.6" width="12.2" height="13.6" rx="2.5" fill="#c084fc" opacity="0.77"/><rect x="68.8" y="24.6" width="12.2" height="13.6" rx="2.5" fill="#3d2554" opacity="0.50"/><rect x="84.0" y="24.6" width="12.2" height="13.6" rx="2.5" fill="#ff6d1f" opacity="0.95"/><rect x="99.2" y="24.6" width="12.2" height="13.6" rx="2.5" fill="#c084fc" opacity="0.90"/><rect x="114.4" y="24.6" width="12.2" height="13.6" rx="2.5" fill="#c084fc" opacity="0.90"/><rect x="129.6" y="24.6" width="12.2" height="13.6" rx="2.5" fill="#c084fc" opacity="0.90"/><rect x="144.8" y="24.6" width="12.2" height="13.6" rx="2.5" fill="#c084fc" opacity="0.58"/><rect x="160.0" y="24.6" width="12.2" height="13.6" rx="2.5" fill="#c084fc" opacity="0.53"/><rect x="175.2" y="24.6" width="12.2" height="13.6" rx="2.5" fill="#c084fc" opacity="0.90"/><rect x="190.4" y="24.6" width="12.2" height="13.6" rx="2.5" fill="#3d2554" opacity="0.50"/><rect x="205.6" y="24.6" width="12.2" height="13.6" rx="2.5" fill="#c084fc" opacity="0.70"/><rect x="220.8" y="24.6" width="12.2" height="13.6" rx="2.5" fill="#c084fc" opacity="0.50"/><rect x="236.0" y="24.6" width="12.2" height="13.6" rx="2.5" fill="#3d2554" opacity="0.50"/><rect x="251.2" y="24.6" width="12.2" height="13.6" rx="2.5" fill="#ff6d1f" opacity="0.95"/><rect x="266.4" y="24.6" width="12.2" height="13.6" rx="2.5" fill="#c084fc" opacity="0.48"/><rect x="281.6" y="24.6" width="12.2" height="13.6" rx="2.5" fill="#c084fc" opacity="0.65"/><rect x="296.8" y="24.6" width="12.2" height="13.6" rx="2.5" fill="#3d2554" opacity="0.50"/><rect x="8.0" y="41.1" width="12.2" height="13.6" rx="2.5" fill="#c084fc" opacity="0.90"/><rect x="23.2" y="41.1" width="12.2" height="13.6" rx="2.5" fill="#3d2554" opacity="0.50"/><rect x="38.4" y="41.1" width="12.2" height="13.6" rx="2.5" fill="#c084fc" opacity="0.90"/><rect x="53.6" y="41.1" width="12.2" height="13.6" rx="2.5" fill="#c084fc" opacity="0.51"/><rect x="68.8" y="41.1" width="12.2" height="13.6" rx="2.5" fill="#c084fc" opacity="0.56"/><rect x="84.0" y="41.1" width="12.2" height="13.6" rx="2.5" fill="#3d2554" opacity="0.50"/><rect x="99.2" y="41.1" width="12.2" height="13.6" rx="2.5" fill="#c084fc" opacity="0.90"/><rect x="114.4" y="41.1" width="12.2" height="13.6" rx="2.5" fill="#c084fc" opacity="0.48"/><rect x="129.6" y="41.1" width="12.2" height="13.6" rx="2.5" fill="#ff6d1f" opacity="0.95"/><rect x="144.8" y="41.1" width="12.2" height="13.6" rx="2.5" fill="#c084fc" opacity="0.45"/><rect x="160.0" y="41.1" width="12.2" height="13.6" rx="2.5" fill="#c084fc" opacity="0.90"/><rect x="175.2" y="41.1" width="12.2" height="13.6" rx="2.5" fill="#c084fc" opacity="0.90"/><rect x="190.4" y="41.1" width="12.2" height="13.6" rx="2.5" fill="#3d2554" opacity="0.50"/><rect x="205.6" y="41.1" width="12.2" height="13.6" rx="2.5" fill="#3d2554" opacity="0.50"/><rect x="220.8" y="41.1" width="12.2" height="13.6" rx="2.5" fill="#c084fc" opacity="0.73"/><rect x="236.0" y="41.1" width="12.2" height="13.6" rx="2.5" fill="#ff6d1f" opacity="0.95"/><rect x="251.2" y="41.1" width="12.2" height="13.6" rx="2.5" fill="#3d2554" opacity="0.50"/><rect x="266.4" y="41.1" width="12.2" height="13.6" rx="2.5" fill="#c084fc" opacity="0.46"/><rect x="281.6" y="41.1" width="12.2" height="13.6" rx="2.5" fill="#3d2554" opacity="0.50"/><rect x="296.8" y="41.1" width="12.2" height="13.6" rx="2.5" fill="#c084fc" opacity="0.55"/><rect x="8.0" y="57.7" width="12.2" height="13.6" rx="2.5" fill="#3d2554" opacity="0.50"/><rect x="23.2" y="57.7" width="12.2" height="13.6" rx="2.5" fill="#ff6d1f" opacity="0.95"/><rect x="38.4" y="57.7" width="12.2" height="13.6" rx="2.5" fill="#3d2554" opacity="0.50"/><rect x="53.6" y="57.7" width="12.2" height="13.6" rx="2.5" fill="#c084fc" opacity="0.67"/><rect x="68.8" y="57.7" width="12.2" height="13.6" rx="2.5" fill="#ff6d1f" opacity="0.95"/><rect x="84.0" y="57.7" width="12.2" height="13.6" rx="2.5" fill="#ff6d1f" opacity="0.95"/><rect x="99.2" y="57.7" width="12.2" height="13.6" rx="2.5" fill="#3d2554" opacity="0.50"/><rect x="114.4" y="57.7" width="12.2" height="13.6" rx="2.5" fill="#ff6d1f" opacity="0.95"/><rect x="129.6" y="57.7" width="12.2" height="13.6" rx="2.5" fill="#ff6d1f" opacity="0.95"/><rect x="144.8" y="57.7" width="12.2" height="13.6" rx="2.5" fill="#c084fc" opacity="0.55"/><rect x="160.0" y="57.7" width="12.2" height="13.6" rx="2.5" fill="#c084fc" opacity="0.90"/><rect x="175.2" y="57.7" width="12.2" height="13.6" rx="2.5" fill="#c084fc" opacity="0.90"/><rect x="190.4" y="57.7" width="12.2" height="13.6" rx="2.5" fill="#c084fc" opacity="0.90"/><rect x="205.6" y="57.7" width="12.2" height="13.6" rx="2.5" fill="#3d2554" opacity="0.50"/><rect x="220.8" y="57.7" width="12.2" height="13.6" rx="2.5" fill="#c084fc" opacity="0.62"/><rect x="236.0" y="57.7" width="12.2" height="13.6" rx="2.5" fill="#3d2554" opacity="0.50"/><rect x="251.2" y="57.7" width="12.2" height="13.6" rx="2.5" fill="#c084fc" opacity="0.90"/><rect x="266.4" y="57.7" width="12.2" height="13.6" rx="2.5" fill="#3d2554" opacity="0.50"/><rect x="281.6" y="57.7" width="12.2" height="13.6" rx="2.5" fill="#c084fc" opacity="0.60"/><rect x="296.8" y="57.7" width="12.2" height="13.6" rx="2.5" fill="#3d2554" opacity="0.50"/><rect x="8.0" y="74.3" width="12.2" height="13.6" rx="2.5" fill="#3d2554" opacity="0.50"/><rect x="23.2" y="74.3" width="12.2" height="13.6" rx="2.5" fill="#3d2554" opacity="0.50"/><rect x="38.4" y="74.3" width="12.2" height="13.6" rx="2.5" fill="#ff6d1f" opacity="0.95"/><rect x="53.6" y="74.3" width="12.2" height="13.6" rx="2.5" fill="#3d2554" opacity="0.50"/><rect x="68.8" y="74.3" width="12.2" height="13.6" rx="2.5" fill="#c084fc" opacity="0.71"/><rect x="84.0" y="74.3" width="12.2" height="13.6" rx="2.5" fill="#3d2554" opacity="0.50"/><rect x="99.2" y="74.3" width="12.2" height="13.6" rx="2.5" fill="#c084fc" opacity="0.46"/><rect x="114.4" y="74.3" width="12.2" height="13.6" rx="2.5" fill="#c084fc" opacity="0.58"/><rect x="129.6" y="74.3" width="12.2" height="13.6" rx="2.5" fill="#3d2554" opacity="0.50"/><rect x="144.8" y="74.3" width="12.2" height="13.6" rx="2.5" fill="#c084fc" opacity="0.64"/><rect x="160.0" y="74.3" width="12.2" height="13.6" rx="2.5" fill="#ff6d1f" opacity="0.95"/><rect x="175.2" y="74.3" width="12.2" height="13.6" rx="2.5" fill="#c084fc" opacity="0.75"/><rect x="190.4" y="74.3" width="12.2" height="13.6" rx="2.5" fill="#c084fc" opacity="0.90"/><rect x="205.6" y="74.3" width="12.2" height="13.6" rx="2.5" fill="#c084fc" opacity="0.90"/><rect x="220.8" y="74.3" width="12.2" height="13.6" rx="2.5" fill="#c084fc" opacity="0.90"/><rect x="236.0" y="74.3" width="12.2" height="13.6" rx="2.5" fill="#c084fc" opacity="0.90"/><rect x="251.2" y="74.3" width="12.2" height="13.6" rx="2.5" fill="#c084fc" opacity="0.90"/><rect x="266.4" y="74.3" width="12.2" height="13.6" rx="2.5" fill="#ff6d1f" opacity="0.95"/><rect x="281.6" y="74.3" width="12.2" height="13.6" rx="2.5" fill="#3d2554" opacity="0.50"/><rect x="296.8" y="74.3" width="12.2" height="13.6" rx="2.5" fill="#3d2554" opacity="0.50"/><rect x="8.0" y="90.9" width="12.2" height="13.6" rx="2.5" fill="#c084fc" opacity="0.45"/><rect x="23.2" y="90.9" width="12.2" height="13.6" rx="2.5" fill="#c084fc" opacity="0.90"/><rect x="38.4" y="90.9" width="12.2" height="13.6" rx="2.5" fill="#ff6d1f" opacity="0.95"/><rect x="53.6" y="90.9" width="12.2" height="13.6" rx="2.5" fill="#ff6d1f" opacity="0.95"/><rect x="68.8" y="90.9" width="12.2" height="13.6" rx="2.5" fill="#3d2554" opacity="0.50"/><rect x="84.0" y="90.9" width="12.2" height="13.6" rx="2.5" fill="#3d2554" opacity="0.50"/><rect x="99.2" y="90.9" width="12.2" height="13.6" rx="2.5" fill="#c084fc" opacity="0.90"/><rect x="114.4" y="90.9" width="12.2" height="13.6" rx="2.5" fill="#c084fc" opacity="0.41"/><rect x="129.6" y="90.9" width="12.2" height="13.6" rx="2.5" fill="#c084fc" opacity="0.90"/><rect x="144.8" y="90.9" width="12.2" height="13.6" rx="2.5" fill="#c084fc" opacity="0.53"/><rect x="160.0" y="90.9" width="12.2" height="13.6" rx="2.5" fill="#c084fc" opacity="0.51"/><rect x="175.2" y="90.9" width="12.2" height="13.6" rx="2.5" fill="#3d2554" opacity="0.50"/><rect x="190.4" y="90.9" width="12.2" height="13.6" rx="2.5" fill="#c084fc" opacity="0.90"/><rect x="205.6" y="90.9" width="12.2" height="13.6" rx="2.5" fill="#3d2554" opacity="0.50"/><rect x="220.8" y="90.9" width="12.2" height="13.6" rx="2.5" fill="#c084fc" opacity="0.42"/><rect x="236.0" y="90.9" width="12.2" height="13.6" rx="2.5" fill="#c084fc" opacity="0.90"/><rect x="251.2" y="90.9" width="12.2" height="13.6" rx="2.5" fill="#3d2554" opacity="0.50"/><rect x="266.4" y="90.9" width="12.2" height="13.6" rx="2.5" fill="#3d2554" opacity="0.50"/><rect x="281.6" y="90.9" width="12.2" height="13.6" rx="2.5" fill="#3d2554" opacity="0.50"/><rect x="296.8" y="90.9" width="12.2" height="13.6" rx="2.5" fill="#c084fc" opacity="0.90"/><rect x="8.0" y="107.4" width="12.2" height="13.6" rx="2.5" fill="#c084fc" opacity="0.57"/><rect x="23.2" y="107.4" width="12.2" height="13.6" rx="2.5" fill="#c084fc" opacity="0.71"/><rect x="38.4" y="107.4" width="12.2" height="13.6" rx="2.5" fill="#3d2554" opacity="0.50"/><rect x="53.6" y="107.4" width="12.2" height="13.6" rx="2.5" fill="#c084fc" opacity="0.78"/><rect x="68.8" y="107.4" width="12.2" height="13.6" rx="2.5" fill="#3d2554" opacity="0.50"/><rect x="84.0" y="107.4" width="12.2" height="13.6" rx="2.5" fill="#3d2554" opacity="0.50"/><rect x="99.2" y="107.4" width="12.2" height="13.6" rx="2.5" fill="#c084fc" opacity="0.56"/><rect x="114.4" y="107.4" width="12.2" height="13.6" rx="2.5" fill="#ff6d1f" opacity="0.95"/><rect x="129.6" y="107.4" width="12.2" height="13.6" rx="2.5" fill="#c084fc" opacity="0.61"/><rect x="144.8" y="107.4" width="12.2" height="13.6" rx="2.5" fill="#3d2554" opacity="0.50"/><rect x="160.0" y="107.4" width="12.2" height="13.6" rx="2.5" fill="#ff6d1f" opacity="0.95"/><rect x="175.2" y="107.4" width="12.2" height="13.6" rx="2.5" fill="#c084fc" opacity="0.47"/><rect x="190.4" y="107.4" width="12.2" height="13.6" rx="2.5" fill="#c084fc" opacity="0.90"/><rect x="205.6" y="107.4" width="12.2" height="13.6" rx="2.5" fill="#3d2554" opacity="0.50"/><rect x="220.8" y="107.4" width="12.2" height="13.6" rx="2.5" fill="#ff6d1f" opacity="0.95"/><rect x="236.0" y="107.4" width="12.2" height="13.6" rx="2.5" fill="#c084fc" opacity="0.77"/><rect x="251.2" y="107.4" width="12.2" height="13.6" rx="2.5" fill="#3d2554" opacity="0.50"/><rect x="266.4" y="107.4" width="12.2" height="13.6" rx="2.5" fill="#ff6d1f" opacity="0.95"/><rect x="281.6" y="107.4" width="12.2" height="13.6" rx="2.5" fill="#3d2554" opacity="0.50"/><rect x="296.8" y="107.4" width="12.2" height="13.6" rx="2.5" fill="#3d2554" opacity="0.50"/></g></svg>