<svg viewBox="0 0 320 132" xmlns="http://www.w3.org/2000/svg" preserveAspectRatio="xMidYMid slice"><rect width="320" height="132" fill="#160023"/><g stroke="#523472" stroke-width="1.4" fill="none"><path d="M28 12V116H306"/></g><circle cx="250.5" cy="36.3" r="2.4" fill="#523472" opacity="0.85"/><circle cx="39.3" cy="29.9" r="2.4" fill="#523472" opacity="0.85"/><circle cx="104.9" cy="66.1" r="2.4" fill="#523472" opacity="0.85"/><circle cx="249.5" cy="54.4" r="2.4" fill="#523472" opacity="0.85"/><circle cx="68.9" cy="49.2" r="2.4" fill="#523472" opacity="0.85"/><circle cx="47.3" cy="72.6" r="2.4" fill="#523472" opacity="0.85"/><circle cx="254.0" cy="78.2" r="2.4" fill="#523472" opacity="0.85"/><circle cx="194.8" cy="50.5" r="2.4" fill="#523472" opacity="0.85"/><circle cx="256.3" cy="51.2" r="2.4" fill="#523472" opacity="0.85"/><circle cx="178.5" cy="59.4" r="2.4" fill="#523472" opacity="0.85"/><circle cx="258.3" cy="36.5" r="2.4" fill="#523472" opacity="0.85"/><circle cx="63.6" cy="83.9" r="2.4" fill="#523472" opacity="0.85"/><circle cx="211.2" cy="100.0" r="2.4" fill="#523472" opacity="0.85"/><circle cx="90.3" cy="57.2" r="2.4" fill="#523472" opacity="0.85"/><circle cx="75.1" cy="39.5" r="2.4" fill="#523472" opacity="0.85"/><circle cx="176.1" cy="43.8" r="2.4" fill="#523472" opacity="0.85"/><circle cx="299.1" cy="93.2" r="2.4" fill="#523472" opacity="0.85"/><circle cx="75.0" cy="31.7" r="2.4" fill="#523472" opacity="0.85"/><circle cx="280.8" cy="98.5" r="2.4" fill="#523472" opacity="0.85"/><circle cx="150.7" cy="48.8" r="2.4" fill="#523472" opacity="0.85"/><circle cx="263.0" cy="99.9" r="2.4" fill="#523472" opacity="0.85"/><circle cx="212.9" cy="45.0" r="2.4" fill="#523472" opacity="0.85"/><circle cx="180.8" cy="95.7" r="2.4" fill="#523472" opacity="0.85"/><circle cx="37.9" cy="78.3" r="2.4" fill="#523472" opacity="0.85"/><circle cx="34.4" cy="58.2" r="2.4" fill="#523472" opacity="0.85"/><circle cx="221.7" cy="76.5" r="2.4" fill="#523472" opacity="0.85"/><circle cx="65.4" cy="75.7" r="2.4" fill="#523472" opacity="0.85"/><circle cx="192.1" cy="33.0" r="2.4" fill="#523472" opacity="0.85"/><circle cx="303.9" cy="96.2" r="2.4" fill="#523472" opacity="0.85"/><circle cx="30.9" cy="33.1" r="2.4" fill="#523472" opacity="0.85"/><circle cx="285.6" cy="77.5" r="2.4" fill="#523472" opacity="0.85"/><circle cx="242.5" cy="41.8" r="2.4" fill="#523472" opacity="0.85"/><circle cx="197.5" cy="38.8" r="2.4" fill="#523472" opacity="0.85"/><circle cx="128.3" cy="72.1" r="2.4" fill="#523472" opacity="0.85"/><circle cx="78.4" cy="61.0" r="2.4" fill="#523472" opacity="0.85"/><circle cx="176.7" cy="83.0" r="2.4" fill="#523472" opacity="0.85"/><path d="M30.0 66.5 L30.3 71.3 L34.6 78.9 L45.7 89.5 L105.1 95.1 L156.8 103.3 L215.0 105.2 L252.6 109.4 L266.2 111.1 L281.2 112.2" fill="none" stroke="#ff6d1f" stroke-width="2" opacity="0.9"/><circle cx="30.0" cy="66.5" r="3.4" fill="#ff6d1f"/><circle cx="30.3" cy="71.3" r="3.4" fill="#ff6d1f"/><circle cx="34.6" cy="78.9" r="3.4" fill="#ff6d1f"/><circle cx="45.7" cy="89.5" r="3.4" fill="#ff6d1f"/><circle cx="105.1" cy="95.1" r="3.4" fill="#ff6d1f"/><circle cx="156.8" cy="103.3" r="3.4" fill="#ff6d1f"/><circle cx="215.0" cy="105.2" r="3.4" fill="#ff6d1f"/><circle cx="252.6" cy="109.4" r="3.4" fill="#ff6d1f"/><circle cx="266.2" cy="111.1" r="3.4" fill="#ff6d1f"/><circle cx="281.2" cy="112.2" r="3.4" fill="#ff6d1f"/></svg>