<svg viewBox="0 0 320 132" xmlns="http://www.w3.org/2000/svg" preserveAspectRatio="xMidYMid slice"><rect width="320" height="132" fill="#160023"/><g><rect x="8.0" y="8.0" width="15.9" height="14.6" rx="2" fill="#3d2554" opacity="0.35"/><rect x="8.0" y="8.0" width="15.9" height="14.6" rx="2" fill="#c084fc" opacity="0.57"/><rect x="25.9" y="8.0" width="15.9" height="14.6" rx="2" fill="#3d2554" opacity="0.35"/><rect x="43.8" y="8.0" width="15.9" height="14.6" rx="2" fill="#3d2554" opacity="0.35"/><rect x="61.6" y="8.0" width="15.9" height="14.6" rx="2" fill="#3d2554" opacity="0.35"/><rect x="79.5" y="8.0" width="15.9" height="14.6" rx="2" fill="#3d2554" opacity="0.35"/><rect x="97.4" y="8.0" width="15.9" height="14.6" rx="2" fill="#3d2554" opacity="0.35"/><rect x="115.3" y="8.0" width="15.9" height="14.6" rx="2" fill="#3d2554" opacity="0.35"/><rect x="115.3" y="8.0" width="15.9" height="14.6" rx="2" fill="#c084fc" opacity="0.83"/><rect x="133.2" y="8.0" width="15.9" height="14.6" rx="2" fill="#3d2554" opacity="0.35"/><rect x="133.2" y="8.0" width="15.9" height="14.6" rx="2" fill="#c084fc" opacity="0.70"/><rect x="151.1" y="8.0" width="15.9" height="14.6" rx="2" fill="#3d2554" opacity="0.35"/><rect x="168.9" y="8.0" width="15.9" height="14.6" rx="2" fill="#3d2554" opacity="0.35"/><rect x="186.8" y="8.0" width="15.9" height="14.6" rx="2" fill="#3d2554" opacity="0.35"/><rect x="204.7" y="8.0" width="15.9" height="14.6" rx="2" fill="#3d2554" opacity="0.35"/><rect x="222.6" y="8.0" width="15.9" height="14.6" rx="2" fill="#3d2554" opacity="0.35"/><rect x="240.5" y="8.0" width="15.9" height="14.6" rx="2" fill="#3d2554" opacity="0.35"/><rect x="258.4" y="8.0" width="15.9" height="14.6" rx="2" fill="#3d2554" opacity="0.35"/><rect x="258.4" y="8.0" width="15.9" height="14.6" rx="2" fill="#c084fc" opacity="0.84"/><rect x="276.2" y="8.0" width="15.9" height="14.6" rx="2" fill="#3d2554" opacity="0.35"/><rect x="294.1" y="8.0" width="15.9" height="14.6" rx="2" fill="#3d2554" opacity="0.35"/><rect x="294.1" y="8.0" width="15.9" height="14.6" rx="2" fill="#c084fc" opacity="0.44"/><rect x="8.0" y="24.6" width="15.9" height="14.6" rx="2" fill="#3d2554" opacity="0.35"/><rect x="25.9" y="24.6" width="15.9" height="14.6" rx="2" fill="#3d2554" opacity="0.35"/><rect x="25.9" y="24.6" width="15.9" height="14.6" rx="2" fill="#c084fc" opacity="0.59"/><rect x="43.8" y="24.6" width="15.9" height="14.6" rx="2" fill="#3d2554" opacity="0.35"/><rect x="61.6" y="24.6" width="15.9" height="14.6" rx="2" fill="#3d2554" opacity="0.35"/><rect x="61.6" y="24.6" width="15.9" height="14.6" rx="2" fill="#c084fc" opacity="0.58"/><rect x="79.5" y="24.6" width="15.9" height="14.6" rx="2" fill="#3d2554" opacity="0.35"/><rect x="79.5" y="24.6" width="15.9" height="14.6" rx="2" fill="#c084fc" opacity="0.87"/><rect x="97.4" y="24.6" width="15.9" height="14.6" rx="2" fill="#3d2554" opacity="0.35"/><rect x="115.3" y="24.6" width="15.9" height="14.6" rx="2" fill="#3d2554" opacity="0.35"/><rect x="133.2" y="24.6" width="15.9" height="14.6" rx="2" fill="#3d2554" opacity="0.35"/><rect x="133.2" y="24.6" width="15.9" height="14.6" rx="2" fill="#c084fc" opacity="0.48"/><rect x="151.1" y="24.6" width="15.9" height="14.6" rx="2" fill="#3d2554" opacity="0.35"/><rect x="151.1" y="24.6" width="15.9" height="14.6" rx="2" fill="#c084fc" opacity="0.53"/><rect x="168.9" y="24.6" width="15.9" height="14.6" rx="2" fill="#3d2554" opacity="0.35"/><rect x="168.9" y="24.6" width="15.9" height="14.6" rx="2" fill="#c084fc" opacity="0.45"/><rect x="186.8" y="24.6" width="15.9" height="14.6" rx="2" fill="#3d2554" opacity="0.35"/><rect x="204.7" y="24.6" width="15.9" height="14.6" rx="2" fill="#3d2554" opacity="0.35"/><rect x="204.7" y="24.6" width="15.9" height="14.6" rx="2" fill="#c084fc" opacity="0.91"/><rect x="222.6" y="24.6" width="15.9" height="14.6" rx="2" fill="#3d2554" opacity="0.35"/><rect x="222.6" y="24.6" width="15.9" height="14.6" rx="2" fill="#c084fc" opacity="0.89"/><rect x="240.5" y="24.6" width="15.9" height="14.6" rx="2" fill="#3d2554" opacity="0.35"/><rect x="258.4" y="24.6" width="15.9" height="14.6" rx="2" fill="#3d2554" opacity="0.35"/><rect x="276.2" y="24.6" width="15.9" height="14.6" rx="2" fill="#3d2554" opacity="0.35"/><rect x="294.1" y="24.6" width="15.9" height="14.6" rx="2" fill="#3d2554" opacity="0.35"/><rect x="294.1" y="24.6" width="15.9" height="14.6" rx="2" fill="#c084fc" opacity="0.93"/><rect x="8.0" y="41.1" width="15.9" height="14.6" rx="2" fill="#3d2554" opacity="0.35"/><rect x="8.0" y="41.1" width="15.9" height="14.6" rx="2" fill="#c084fc" opacity="0.69"/><rect x="25.9" y="41.1" width="15.9" height="14.6" rx="2" fill="#3d2554" opacity="0.35"/><rect x="25.9" y="41.1" width="15.9" height="14.6" rx="2" fill="#c084fc" opacity="0.42"/><rect x="43.8" y="41.1" width="15.9" height="14.6" rx="2" fill="#3d2554" opacity="0.35"/><rect x="43.8" y="41.1" width="15.9" height="14.6" rx="2" fill="#c084fc" opacity="0.60"/><rect x="61.6" y="41.1" width="15.9" height="14.6" rx="2" fill="#3d2554" opacity="0.35"/><rect x="79.5" y="41.1" width="15.9" height="14.6" rx="2" fill="#3d2554" opacity="0.35"/><rect x="97.4" y="41.1" width="15.9" height="14.6" rx="2" fill="#3d2554" opacity="0.35"/><rect x="115.3" y="41.1" width="15.9" height="14.6" rx="2" fill="#3d2554" opacity="0.35"/><rect x="133.2" y="41.1" width="15.9" height="14.6" rx="2" fill="#3d2554" opacity="0.35"/><rect x="151.1" y="41.1" width="15.9" height="14.6" rx="2" fill="#3d2554" opacity="0.35"/><rect x="151.1" y="41.1" width="15.9" height="14.6" rx="2" fill="#c084fc" opacity="0.80"/><rect x="168.9" y="41.1" width="15.9" height="14.6" rx="2" fill="#3d2554" opacity="0.35"/><rect x="186.8" y="41.1" width="15.9" height="14.6" rx="2" fill="#3d2554" opacity="0.35"/><rect x="204.7" y="41.1" width="15.9" height="14.6" rx="2" fill="#3d2554" opacity="0.35"/><rect x="222.6" y="41.1" width="15.9" height="14.6" rx="2" fill="#3d2554" opacity="0.35"/><rect x="222.6" y="41.1" width="15.9" height="14.6" rx="2" fill="#c084fc" opacity="0.49"/><rect x="240.5" y="41.1" width="15.9" height="14.6" rx="2" fill="#3d2554" opacity="0.35"/><rect x="240.5" y="41.1" width="15.9" height="14.6" rx="2" fill="#c084fc" opacity="0.68"/><rect x="258.4" y="41.1" width="15.9" height="14.6" rx="2" fill="#3d2554" opacity="0.35"/><rect x="258.4" y="41.1" width="15.9" height="14.6" rx="2" fill="#c084fc" opacity="0.41"/><rect x="276.2" y="41.1" width="15.9" height="14.6" rx="2" fill="#3d2554" opacity="0.35"/><rect x="294.1" y="41.1" width="15.9" height="14.6" rx="2" fill="#3d2554" opacity="0.35"/><rect x="294.1" y="41.1" width="15.9" height="14.6" rx="2" fill="#c084fc" opacity="0.64"/><rect x="8.0" y="57.7" width="15.9" height="14.6" rx="2" fill="#3d2554" opacity="0.35"/><rect x="25.9" y="57.7" width="15.9" height="14.6" rx="2" fill="#3d2554" opacity="0.35"/><rect x="25.9" y="57.7" width="15.9" height="14.6" rx="2" fill="#c084fc" opacity="0.70"/><rect x="43.8" y="57.7" width="15.9" height="14.6" rx="2" fill="#3d2554" opacity="0.35"/><rect x="61.6" y="57.7" width="15.9" height="14.6" rx="2" fill="#3d2554" opacity="0.35"/><rect x="79.5" y="57.7" width="15.9" height="14.6" rx="2" fill="#3d2554" opacity="0.35"/><rect x="97.4" y="57.7" width="15.9" height="14.6" rx="2" fill="#3d2554" opacity="0.35"/><rect x="97.4" y="57.7" width="15.9" height="14.6" rx="2" fill="#c084fc" opacity="0.41"/><rect x="115.3" y="57.7" width="15.9" height="14.6" rx="2" fill="#3d2554" opacity="0.35"/><rect x="133.2" y="57.7" width="15.9" height="14.6" rx="2" fill="#3d2554" opacity="0.35"/><rect x="133.2" y="57.7" width="15.9" height="14.6" rx="2" fill="#c084fc" opacity="0.73"/><rect x="151.1" y="57.7" width="15.9" height="14.6" rx="2" fill="#3d2554" opacity="0.35"/><rect x="168.9" y="57.7" width="15.9" height="14.6" rx="2" fill="#3d2554" opacity="0.35"/><rect x="168.9" y="57.7" width="15.9" height="14.6" rx="2" fill="#c084fc" opacity="0.79"/><rect x="186.8" y="57.7" width="15.9" height="14.6" rx="2" fill="#3d2554" opacity="0.35"/><rect x="186.8" y="57.7" width="15.9" height="14.6" rx="2" fill="#c084fc" opacity="0.71"/><rect x="204.7" y="57.7" width="15.9" height="14.6" rx="2" fill="#3d2554" opacity="0.35"/><rect x="222.6" y="57.7" width="15.9" height="14.6" rx="2" fill="#3d2554" opacity="0.35"/><rect x="222.6" y="57.7" width="15.9" height="14.6" rx="2" fill="#c084fc" opacity="0.44"/><rect x="240.5" y="57.7" width="15.9" height="14.6" rx="2" fill="#3d2554" opacity="0.35"/><rect x="258.4" y="57.7" width="15.9" height="14.6" rx="2" fill="#3d2554" opacity="0.35"/><rect x="258.4" y="57.7" width="15.9" height="14.6" rx="2" fill="#c084fc" opacity="0.59"/><rect x="276.2" y="57.7" width="15.9" height="14.6" rx="2" fill="#3d2554" opacity="0.35"/><rect x="294.1" y="57.7" width="15.9" height="14.6" rx="2" fill="#3d2554" opacity="0.35"/><rect x="8.0" y="74.3" width="15.9" height="14.6" rx="2" fill="#3d2554" opacity="0.35"/><rect x="8.0" y="74.3" width="15.9" height="14.6" rx="2" fill="#c084fc" opacity="0.80"/><rect x="25.9" y="74.3" width="15.9" height="14.6" rx="2" fill="#3d2554" opacity="0.35"/><rect x="43.8" y="74.3" width="15.9" height="14.6" rx="2" fill="#3d2554" opacity="0.35"/><rect x="61.6" y="74.3" width="15.9" height="14.6" rx="2" fill="#3d2554" opacity="0.35"/><rect x="79.5" y="74.3" width="15.9" height="14.6" rx="2" fill="#3d2554" opacity="0.35"/><rect x="97.4" y="74.3" width="15.9" height="14.6" rx="2" fill="#3d2554" opacity="0.35"/><rect x="97.4" y="74.3" width="15.9" height="14.6" rx="2" fill="#c084fc" opacity="0.59"/><rect x="115.3" y="74.3" width="15.9" height="14.6" rx="2" fill="#3d2554" opacity="0.35"/><rect x="133.2" y="74.3" width="15.9" height="14.6" rx="2" fill="#3d2554" opacity="0.35"/><rect x="133.2" y="74.3" width="15.9" height="14.6" rx="2" fill="#c084fc" opacity="0.80"/><rect x="151.1" y="74.3" width="15.9" height="14.6" rx="2" fill="#3d2554" opacity="0.35"/><rect x="168.9" y="74.3" width="15.9" height="14.6" rx="2" fill="#3d2554" opacity="0.35"/><rect x="186.8" y="74.3" width="15.9" height="14.6" rx="2" fill="#3d2554" opacity="0.35"/><rect x="186.8" y="74.3" width="15.9" height="14.6" rx="2" fill="#c084fc" opacity="0.93"/><rect x="204.7" y="74.3" width="15.9" height="14.6" rx="2" fill="#3d2554" opacity="0.35"/><rect x="222.6" y="74.3" width="15.9" height="14.6" rx="2" fill="#3d2554" opacity="0.35"/><rect x="240.5" y="74.3" width="15.9" height="14.6" rx="2" fill="#3d2554" opacity="0.35"/><rect x="240.5" y="74.3" width="15.9" height="14.6" rx="2" fill="#c084fc" opacity="0.56"/><rect x="258.4" y="74.3" width="15.9" height="14.6" rx="2" fill="#3d2554" opacity="0.35"/><rect x="276.2" y="74.3" width="15.9" height="14.6" rx="2" fill="#3d2554" opacity="0.35"/><rect x="294.1" y="74.3" width="15.9" height="14.6" rx="2" fill="#3d2554" opacity="0.35"/><rect x="294.1" y="74.3" width="15.9" height="14.6" rx="2" fill="#c084fc" opacity="0.77"/><rect x="8.0" y="90.9" width="15.9" height="14.6" rx="2" fill="#3d2554" opacity="0.35"/><rect x="25.9" y="90.9" width="15.9" height="14.6" rx="2" fill="#3d2554" opacity="0.35"/><rect x="25.9" y="90.9" width="15.9" height="14.6" rx="2" fill="#c084fc" opacity="0.79"/><rect x="43.8" y="90.9" width="15.9" height="14.6" rx="2" fill="#3d2554" opacity="0.35"/><rect x="43.8" y="90.9" width="15.9" height="14.6" rx="2" fill="#c084fc" opacity="0.43"/><rect x="61.6" y="90.9" width="15.9" height="14.6" rx="2" fill="#3d2554" opacity="0.35"/><rect x="79.5" y="90.9" width="15.9" height="14.6" rx="2" fill="#3d2554" opacity="0.35"/><rect x="97.4" y="90.9" width="15.9" height="14.6" rx="2" fill="#3d2554" opacity="0.35"/><rect x="115.3" y="90.9" width="15.9" height="14.6" rx="2" fill="#3d2554" opacity="0.35"/><rect x="115.3" y="90.9" width="15.9" height="14.6" rx="2" fill="#c084fc" opacity="0.90"/><rect x="133.2" y="90.9" width="15.9" height="14.6" rx="2" fill="#3d2554" opacity="0.35"/><rect x="151.1" y="90.9" width="15.9" height="14.6" rx="2" fill="#3d2554" opacity="0.35"/><rect x="168.9" y="90.9" width="15.9" height="14.6" rx="2" fill="#3d2554" opacity="0.35"/><rect x="186.8" y="90.9" width="15.9" height="14.6" rx="2" fill="#3d2554" opacity="0.35"/><rect x="186.8" y="90.9" width="15.9" height="14.6" rx="2" fill="#c084fc" opacity="0.80"/><rect x="204.7" y="90.9" width="15.9" height="14.6" rx="2" fill="#3d2554" opacity="0.35"/><rect x="222.6" y="90.9" width="15.9" height="14.6" rx="2" fill="#3d2554" opacity="0.35"/><rect x="222.6" y="90.9" width="15.9" height="14.6" rx="2" fill="#c084fc" opacity="0.63"/><rect x="240.5" y="90.9" width="15.9" height="14.6" rx="2" fill="#3d2554" opacity="0.35"/><rect x="258.4" y="90.9" width="15.9" height="14.6" rx="2" fill="#3d2554" opacity="0.35"/><rect x="258.4" y="90.9" width="15.9" height="14.6" rx="2" fill="#c084fc" opacity="0.89"/><rect x="276.2" y="90.9" width="15.9" height="14.6" rx="2" fill="#3d2554" opacity="0.35"/><rect x="294.1" y="90.9" width="15.9" height="14.6" rx="2" fill="#3d2554" opacity="0.35"/><rect x="8.0" y="107.4" width="15.9" height="14.6" rx="2" fill="#3d2554" opacity="0.35"/><rect x="8.0" y="107.4" width="15.9" height="14.6" rx="2" fill="#c084fc" opacity="0.85"/><rect x="25.9" y="107.4" width="15.9" height="14.6" rx="2" fill="#3d2554" opacity="0.35"/><rect x="43.8" y="107.4" width="15.9" height="14.6" rx="2" fill="#3d2554" opacity="0.35"/><rect x="43.8" y="107.4" width="15.9" height="14.6" rx="2" fill="#c084fc" opacity="0.56"/><rect x="61.6" y="107.4" width="15.9" height="14.6" rx="2" fill="#3d2554" opacity="0.35"/><rect x="79.5" y="107.4" width="15.9" height="14.6" rx="2" fill="#3d2554" opacity="0.35"/><rect x="97.4" y="107.4" width="15.9" height="14.6" rx="2" fill="#3d2554" opacity="0.35"/><rect x="115.3" y="107.4" width="15.9" height="14.6" rx="2" fill="#3d2554" opacity="0.35"/><rect x="133.2" y="107.4" width="15.9" height="14.6" rx="2" fill="#3d2554" opacity="0.35"/><rect x="151.1" y="107.4" width="15.9" height="14.6" rx="2" fill="#3d2554" opacity="0.35"/><rect x="168.9" y="107.4" width="15.9" height="14.6" rx="2" fill="#3d2554" opacity="0.35"/><rect x="186.8" y="107.4" width="15.9" height="14.6" rx="2" fill="#3d2554" opacity="0.35"/><rect x="186.8" y="107.4" width="15.9" height="14.6" rx="2" fill="#c084fc" opacity="0.88"/><rect x="204.7" y="107.4" width="15.9" height="14.6" rx="2" fill="#3d2554" opacity="0.35"/><rect x="222.6" y="107.4" width="15.9" height="14.6" rx="2" fill="#3d2554" opacity="0.35"/><rect x="240.5" y="107.4" width="15.9" height="14.6" rx="2" fill="#3d2554" opacity="0.35"/><rect x="258.4" y="107.4" width="15.9" height="14.6" rx="2" fill="#3d2554" opacity="0.35"/><rect x="276.2" y="107.4" width="15.9" height="14.6" rx="2" fill="#3d2554" opacity="0.35"/><rect x="276.2" y="107.4" width="15.9" height="14.6" rx="2" fill="#c084fc" opacity="0.61"/><rect x="294.1" y="107.4" width="15.9" height="14.6" rx="2" fill="#3d2554" opacity="0.35"/><rect x="294.1" y="107.4" width="15.9" height="14.6" rx="2" fill="#c084fc" opacity="0.86"/></g><line x1="56.2" y1="22.3" x2="49.2" y2="10.2" stroke="#ff6d1f" stroke-width="2" stroke-linecap="round"/><line x1="188.8" y1="82.6" x2="202.8" y2="82.6" stroke="#ff6d1f" stroke-width="2" stroke-linecap="round"/><line x1="59.7" y1="16.3" x2="45.7" y2="16.3" stroke="#ff6d1f" stroke-width="2" stroke-linecap="round"/><line x1="184.9" y1="115.7" x2="170.9" y2="115.7" stroke="#ff6d1f" stroke-width="2" stroke-linecap="round"/><line x1="120.7" y1="105.2" x2="127.7" y2="93.1" stroke="#ff6d1f" stroke-width="2" stroke-linecap="round"/><line x1="206.6" y1="16.3" x2="220.6" y2="16.3" stroke="#ff6d1f" stroke-width="2" stroke-linecap="round"/><line x1="92.0" y1="59.9" x2="85.0" y2="72.1" stroke="#ff6d1f" stroke-width="2" stroke-linecap="round"/><line x1="138.6" y1="93.1" x2="145.6" y2="105.2" stroke="#ff6d1f" stroke-width="2" stroke-linecap="round"/><line x1="199.3" y1="109.7" x2="192.3" y2="121.8" stroke="#ff6d1f" stroke-width="2" stroke-linecap="round"/></svg>