<svg viewBox="0 0 320 132" xmlns="http://www.w3.org/2000/svg" preserveAspectRatio="xMidYMid slice"><rect width="320" height="132" fill="#160023"/><g stroke="#3d2554" stroke-width="1.1" fill="none" stroke-linejoin="round"><path d="M-1.3 14.5L44.6 13.6L17.5 30.4Z"/><path d="M44.6 13.6L48.2 45.2L17.5 30.4Z"/><path d="M44.6 13.6L94.5 10.6L48.2 45.2Z"/><path d="M94.5 10.6L78.1 38.8L48.2 45.2Z"/><path d="M94.5 10.6L122.0 3.2L78.1 38.8Z"/><path d="M122.0 3.2L131.0 32.1L78.1 38.8Z"/><path d="M122.0 3.2L154.9 10.0L131.0 32.1Z"/><path d="M154.9 10.0L160.5 42.0L131.0 32.1Z"/><path d="M154.9 10.0L201.9 14.9L160.5 42.0Z"/><path d="M201.9 14.9L201.7 37.5L160.5 42.0Z"/><path d="M201.9 14.9L233.4 3.1L201.7 37.5Z"/><path d="M233.4 3.1L229.5 37.9L201.7 37.5Z"/><path d="M233.4 3.1L269.3 16.6L229.5 37.9Z"/><path d="M269.3 16.6L271.2 37.6L229.5 37.9Z"/><path d="M269.3 16.6L305.7 9.2L271.2 37.6Z"/><path d="M305.7 9.2L309.0 43.4L271.2 37.6Z"/><path d="M17.5 30.4L48.2 45.2L13.9 63.0Z"/><path d="M48.2 45.2L47.6 62.4L13.9 63.0Z"/><path d="M48.2 45.2L78.1 38.8L47.6 62.4Z"/><path d="M78.1 38.8L83.0 63.6L47.6 62.4Z"/><path d="M78.1 38.8L131.0 32.1L83.0 63.6Z"/><path d="M131.0 32.1L125.5 63.9L83.0 63.6Z"/><path d="M131.0 32.1L160.5 42.0L125.5 63.9Z"/><path d="M160.5 42.0L159.1 69.5L125.5 63.9Z"/><path d="M160.5 42.0L201.7 37.5L159.1 69.5Z"/><path d="M201.7 37.5L196.1 72.5L159.1 69.5Z"/><path d="M201.7 37.5L229.5 37.9L196.1 72.5Z"/><path d="M229.5 37.9L229.0 69.9L196.1 72.5Z"/><path d="M229.5 37.9L271.2 37.6L229.0 69.9Z"/><path d="M271.2 37.6L272.3 64.8L229.0 69.9Z"/><path d="M271.2 37.6L309.0 43.4L272.3 64.8Z"/><path d="M309.0 43.4L315.0 66.4L272.3 64.8Z"/><path d="M13.9 63.0L47.6 62.4L6.1 86.0Z"/><path d="M47.6 62.4L37.0 97.4L6.1 86.0Z"/><path d="M47.6 62.4L83.0 63.6L37.0 97.4Z"/><path d="M83.0 63.6L84.5 97.1L37.0 97.4Z"/><path d="M83.0 63.6L125.5 63.9L84.5 97.1Z"/><path d="M125.5 63.9L132.0 96.9L84.5 97.1Z"/><path d="M125.5 63.9L159.1 69.5L132.0 96.9Z"/><path d="M159.1 69.5L150.2 90.9L132.0 96.9Z"/><path d="M159.1 69.5L196.1 72.5L150.2 90.9Z"/><path d="M196.1 72.5L200.0 89.8L150.2 90.9Z"/><path d="M196.1 72.5L229.0 69.9L200.0 89.8Z"/><path d="M229.0 69.9L246.2 101.1L200.0 89.8Z"/><path d="M229.0 69.9L272.3 64.8L246.2 101.1Z"/><path d="M272.3 64.8L281.7 93.6L246.2 101.1Z"/><path d="M272.3 64.8L315.0 66.4L281.7 93.6Z"/><path d="M315.0 66.4L319.5 88.1L281.7 93.6Z"/><path d="M6.1 86.0L37.0 97.4L3.8 121.4Z"/><path d="M37.0 97.4L51.3 121.8L3.8 121.4Z"/><path d="M37.0 97.4L84.5 97.1L51.3 121.8Z"/><path d="M84.5 97.1L76.0 119.5L51.3 121.8Z"/><path d="M84.5 97.1L132.0 96.9L76.0 119.5Z"/><path d="M132.0 96.9L118.1 118.8L76.0 119.5Z"/><path d="M132.0 96.9L150.2 90.9L118.1 118.8Z"/><path d="M150.2 90.9L152.6 120.6L118.1 118.8Z"/><path d="M150.2 90.9L200.0 89.8L152.6 120.6Z"/><path d="M200.0 89.8L196.9 126.4L152.6 120.6Z"/><path d="M200.0 89.8L246.2 101.1L196.9 126.4Z"/><path d="M246.2 101.1L242.5 122.4L196.9 126.4Z"/><path d="M246.2 101.1L281.7 93.6L242.5 122.4Z"/><path d="M281.7 93.6L273.1 126.5L242.5 122.4Z"/><path d="M281.7 93.6L319.5 88.1L273.1 126.5Z"/><path d="M319.5 88.1L320.5 124.8L273.1 126.5Z"/></g><circle cx="-1.3" cy="14.5" r="2.3" fill="#c084fc" opacity="0.39"/><circle cx="44.6" cy="13.6" r="3.1" fill="#c084fc" opacity="0.54"/><circle cx="94.5" cy="10.6" r="3.6" fill="#ff6d1f" opacity="0.63"/><circle cx="122.0" cy="3.2" r="3.4" fill="#c084fc" opacity="0.59"/><circle cx="154.9" cy="10.0" r="3.2" fill="#c084fc" opacity="0.54"/><circle cx="201.9" cy="14.9" r="2.4" fill="#c084fc" opacity="0.40"/><circle cx="17.5" cy="30.4" r="2.8" fill="#c084fc" opacity="0.48"/><circle cx="48.2" cy="45.2" r="3.6" fill="#c084fc" opacity="0.62"/><circle cx="78.1" cy="38.8" r="4.0" fill="#ff6d1f" opacity="0.70"/><circle cx="131.0" cy="32.1" r="3.9" fill="#ff6d1f" opacity="0.67"/><circle cx="160.5" cy="42.0" r="3.5" fill="#c084fc" opacity="0.60"/><circle cx="201.7" cy="37.5" r="2.6" fill="#c084fc" opacity="0.44"/><circle cx="229.5" cy="37.9" r="2.0" fill="#c084fc" opacity="0.33"/><circle cx="13.9" cy="63.0" r="2.9" fill="#c084fc" opacity="0.50"/><circle cx="47.6" cy="62.4" r="3.6" fill="#ff6d1f" opacity="0.63"/><circle cx="83.0" cy="63.6" r="4.4" fill="#ff6d1f" opacity="0.77"/><circle cx="125.5" cy="63.9" r="4.3" fill="#ff6d1f" opacity="0.76"/><circle cx="159.1" cy="69.5" r="3.6" fill="#ff6d1f" opacity="0.62"/><circle cx="196.1" cy="72.5" r="2.8" fill="#c084fc" opacity="0.47"/><circle cx="229.0" cy="69.9" r="2.1" fill="#c084fc" opacity="0.34"/><circle cx="6.1" cy="86.0" r="2.7" fill="#c084fc" opacity="0.46"/><circle cx="37.0" cy="97.4" r="3.3" fill="#c084fc" opacity="0.56"/><circle cx="84.5" cy="97.1" r="4.0" fill="#ff6d1f" opacity="0.71"/><circle cx="132.0" cy="96.9" r="3.9" fill="#ff6d1f" opacity="0.68"/><circle cx="150.2" cy="90.9" r="3.7" fill="#ff6d1f" opacity="0.63"/><circle cx="200.0" cy="89.8" r="2.7" fill="#c084fc" opacity="0.45"/><circle cx="3.8" cy="121.4" r="2.4" fill="#c084fc" opacity="0.40"/><circle cx="51.3" cy="121.8" r="3.2" fill="#c084fc" opacity="0.55"/><circle cx="76.0" cy="119.5" r="3.5" fill="#c084fc" opacity="0.61"/><circle cx="118.1" cy="118.8" r="3.6" fill="#ff6d1f" opacity="0.63"/><circle cx="152.6" cy="120.6" r="3.2" fill="#c084fc" opacity="0.55"/><circle cx="196.9" cy="126.4" r="2.4" fill="#c084fc" opacity="0.40"/></svg>