<svg viewBox="0 0 320 132" xmlns="http://www.w3.org/2000/svg" preserveAspectRatio="xMidYMid slice"><rect width="320" height="132" fill="#160023"/><g stroke="#523472" stroke-width="1.6" fill="none"><path d="M56 66.0C80.0 66.0 80.0 39.6 104 39.6"/><path d="M56 66.0C80.0 66.0 80.0 92.4 104 92.4"/><path d="M136 39.6C160.0 39.6 160.0 37.0 184 37.0"/><path d="M136 39.6C160.0 39.6 160.0 72.6 184 72.6"/><path d="M136 39.6C160.0 39.6 160.0 105.6 184 105.6"/><path d="M136 92.4C160.0 92.4 160.0 37.0 184 37.0"/><path d="M136 92.4C160.0 92.4 160.0 72.6 184 72.6"/><path d="M136 92.4C160.0 92.4 160.0 105.6 184 105.6"/><path d="M216 37.0C240.0 37.0 240.0 66.0 264 66.0"/><path d="M216 72.6C240.0 72.6 240.0 66.0 264 66.0"/><path d="M216 105.6C240.0 105.6 240.0 66.0 264 66.0"/></g><path d="M56 66.0C80.0 66.0 80.0 39.6 104 39.6" fill="none" stroke="#ff6d1f" stroke-width="2.4"/><path d="M136 39.6C160.0 39.6 160.0 72.6 184 72.6" fill="none" stroke="#ff6d1f" stroke-width="2.4"/><path d="M216 72.6C240.0 72.6 240.0 66.0 264 66.0" fill="none" stroke="#ff6d1f" stroke-width="2.4"/><rect x="24.0" y="55.0" width="32" height="22" rx="6" fill="#160023" stroke="#ff6d1f" stroke-width="2"/><circle cx="40.0" cy="66.0" r="3.2" fill="#ff6d1f"/><rect x="104.0" y="28.6" width="32" height="22" rx="6" fill="#160023" stroke="#ff6d1f" stroke-width="2"/><circle cx="120.0" cy="39.6" r="3.2" fill="#ff6d1f"/><rect x="104.0" y="81.4" width="32" height="22" rx="6" fill="#160023" stroke="#c084fc" stroke-width="2"/><circle cx="120.0" cy="92.4" r="3.2" fill="#c084fc"/><rect x="184.0" y="26.0" width="32" height="22" rx="6" fill="#160023" stroke="#c084fc" stroke-width="2"/><circle cx="200.0" cy="37.0" r="3.2" fill="#c084fc"/><rect x="184.0" y="61.6" width="32" height="22" rx="6" fill="#160023" stroke="#ff6d1f" stroke-width="2"/><circle cx="200.0" cy="72.6" r="3.2" fill="#ff6d1f"/><rect x="184.0" y="94.6" width="32" height="22" rx="6" fill="#160023" stroke="#c084fc" stroke-width="2"/><circle cx="200.0" cy="105.6" r="3.2" fill="#c084fc"/><rect x="264.0" y="55.0" width="32" height="22" rx="6" fill="#160023" stroke="#ff6d1f" stroke-width="2"/><circle cx="280.0" cy="66.0" r="3.2" fill="#ff6d1f"/></svg>